<svg xmlns="http://www.w3.org/2000/svg" viewBox="0 0 28 28"><title>settings</title><g id="Layer_2" data-name="Layer 2"><g id="Layer_1-2" data-name="Layer 1"><path d="M22.29,20.44a1.89,1.89,0,0,1,.26.38,1,1,0,0,1,.1.44,1,1,0,0,1-.1.46,1.43,1.43,0,0,1-.62.61,1,1,0,0,1-.46.1.93.93,0,0,1-.46-.11,2.87,2.87,0,0,1-.46-.35,3,3,0,0,0-1.61-.87,2.79,2.79,0,0,0-1.78.27,2.81,2.81,0,0,0-1.37,1.14,3.09,3.09,0,0,0-.49,1.66v.22a1.13,1.13,0,0,1-.33.86,1.18,1.18,0,0,1-.85.31,1.13,1.13,0,0,1-.83-.31,1.16,1.16,0,0,1-.31-.86v-.11a3.12,3.12,0,0,0-2.39-2.93,3.3,3.3,0,0,0-3.11.83,1.28,1.28,0,0,1-2-.37.94.94,0,0,1-.06-.45A1.86,1.86,0,0,1,6,20.44a2.93,2.93,0,0,0,.85-1.58,2.75,2.75,0,0,0-.27-1.77A2.9,2.9,0,0,0,5.4,15.71a3,3,0,0,0-1.65-.5H3.5a1.18,1.18,0,0,1-.85-.31,1.09,1.09,0,0,1-.33-.83,1.13,1.13,0,0,1,.33-.86,1.18,1.18,0,0,1,.85-.31h.11a2.79,2.79,0,0,0,1.71-.56A3.21,3.21,0,0,0,6.59,9.13a3.44,3.44,0,0,0-.87-1.7,1.08,1.08,0,0,1,0-1.61,1.1,1.1,0,0,1,.83-.34,1.35,1.35,0,0,1,.92.45,2.84,2.84,0,0,0,1.48.78,3.33,3.33,0,0,0,1.67-.07L11,6.5a2.83,2.83,0,0,0,1.37-1.13,3,3,0,0,0,.49-1.65V3.48a1.09,1.09,0,0,1,.33-.83A1.18,1.18,0,0,1,14,2.34a1.15,1.15,0,0,1,.85.33,1.29,1.29,0,0,1,.33,1,3,3,0,0,0,.49,1.69A2.91,2.91,0,0,0,17,6.39a3.11,3.11,0,0,0,1.79.18,3.57,3.57,0,0,0,1.71-.88,1.14,1.14,0,0,1,.36-.24,1.18,1.18,0,0,1,.46-.08,1.11,1.11,0,0,1,.44.08,1.51,1.51,0,0,1,.38.24,1.13,1.13,0,0,1,.31.83,1.34,1.34,0,0,1-.45.91,3,3,0,0,0-.78,1.5,3.09,3.09,0,0,0,.1,1.66l.11.33a2.9,2.9,0,0,0,1.13,1.37,3,3,0,0,0,1.65.5,1.46,1.46,0,0,1,1.09.31,1.09,1.09,0,0,1,.33.83,1.12,1.12,0,0,1-1.07,1.15,4.07,4.07,0,0,0-1.92.51A2.88,2.88,0,0,0,21.57,17a2.54,2.54,0,0,0-.22,1.78A3.89,3.89,0,0,0,22.29,20.44Zm1.39-2.56a1,1,0,0,1,.27-.31.87.87,0,0,1,.55-.15,3.41,3.41,0,0,0,2.49-1,3.35,3.35,0,0,0,1-2.49,3.36,3.36,0,0,0-1-2.48,3.5,3.5,0,0,0-1.43-.86,3.23,3.23,0,0,0-.85-.14,1.66,1.66,0,0,1-.79-.09,1,1,0,0,1-.41-.91.85.85,0,0,1,.27-.5,3.31,3.31,0,0,0,1.07-2.22,4.43,4.43,0,0,0-.56-2.19A2.36,2.36,0,0,0,24,4.09a3.76,3.76,0,0,0-2.69-1.18A3.8,3.8,0,0,0,20,3.17a3.41,3.41,0,0,0-1.19.78.83.83,0,0,1-.84.16.56.56,0,0,1-.44-.62A3.45,3.45,0,0,0,14,0a3.45,3.45,0,0,0-3.5,3.48v.24a.72.72,0,0,1-.08.33.52.52,0,0,1-.27.24l-.22.11a.52.52,0,0,1-.44,0A2.07,2.07,0,0,1,9,4.19a3.48,3.48,0,0,0-2.5-1,3.21,3.21,0,0,0-2.42,1A3.34,3.34,0,0,0,3,6.68,3.28,3.28,0,0,0,4.21,9.17a.71.71,0,0,1,.18.44,1.5,1.5,0,0,1-.07.52.85.85,0,0,1-.31.31.92.92,0,0,1-.51.15,3.41,3.41,0,0,0-2.49,1,3.35,3.35,0,0,0-1,2.49,3.36,3.36,0,0,0,1,2.48,3.39,3.39,0,0,0,2.49,1h.25a.68.68,0,0,1,.42.14.81.81,0,0,1,.26.33.72.72,0,0,1,.05.41,1,1,0,0,1-.27.52,3.36,3.36,0,0,0-.81,1.13,3.28,3.28,0,0,0-.26,1.29,3.19,3.19,0,0,0,.25,1.22,4.18,4.18,0,0,0,.68,1.12l.14.11.33.35a3.42,3.42,0,0,0,2.35.69,3.79,3.79,0,0,0,2.32-1,.62.62,0,0,1,.42-.18,1.37,1.37,0,0,1,.51.07.57.57,0,0,1,.37.27,1.24,1.24,0,0,1,.1.54A3.45,3.45,0,0,0,14.11,28a3.42,3.42,0,0,0,3.5-3.48v-.24a.62.62,0,0,1,.15-.44,1.73,1.73,0,0,1,.31-.27.86.86,0,0,1,.44-.05.81.81,0,0,1,.49.3,3.48,3.48,0,0,0,2.5,1,3.21,3.21,0,0,0,2.42-1,3.34,3.34,0,0,0,1-2.49,3.25,3.25,0,0,0-.36-1.47,3.41,3.41,0,0,0-.45-.65,1.51,1.51,0,0,1-.43-.61A1.08,1.08,0,0,1,23.68,17.88ZM14,16.27a2.33,2.33,0,0,1-1.64-4,2.32,2.32,0,1,1,3.28,3.29A2.24,2.24,0,0,1,14,16.27Zm0-7a4.53,4.53,0,0,0-3.29,1.36,4.58,4.58,0,0,0,0,6.56,4.67,4.67,0,0,0,6.59,0,4.58,4.58,0,0,0,0-6.56A4.53,4.53,0,0,0,14,9.31Z"/></g></g></svg>